<svg xmlns="http://www.w3.org/2000/svg" width="1938" height="483" viewBox="0 0 1938 483" role="img" aria-labelledby="title desc">
  <title id="title">Cadde Depo logo</title>
  <desc id="desc">Cadde Depo transparent SVG logo asset generated from the approved brand mark.</desc>
  <g fill-rule="evenodd" clip-rule="evenodd">
    <path fill="#F4F4F2" d="M1574,417 L1573,419 L1573,425 L1574,427 L1576,428 L1586,428 L1587,429 L1587,462 L1589,464 L1599,464 L1601,462 L1601,437 L1600,436 L1600,430 L1602,427 L1613,427 L1614,426 L1614,417 Z M1524,417 L1524,463 L1525,464 L1529,464 L1530,465 L1533,465 L1536,463 L1536,456 L1537,455 L1537,451 L1540,448 L1542,448 L1545,453 L1546,453 L1547,455 L1549,456 L1551,460 L1554,463 L1558,465 L1567,465 L1568,464 L1568,461 L1565,458 L1564,455 L1562,454 L1559,449 L1551,440 L1550,437 L1551,435 L1553,434 L1553,433 L1555,432 L1555,431 L1557,430 L1562,425 L1562,424 L1564,423 L1565,421 L1566,421 L1566,420 L1568,418 L1567,417 L1554,417 L1554,418 L1552,419 L1547,424 L1547,425 L1545,426 L1545,427 L1543,428 L1543,429 L1541,430 L1540,432 L1539,432 L1538,434 L1537,434 L1536,433 L1536,417 Z M1475,417 L1474,418 L1474,462 L1475,464 L1510,464 L1512,461 L1512,456 L1510,453 L1488,453 L1487,452 L1487,447 L1488,446 L1506,446 L1508,444 L1508,438 L1506,435 L1504,434 L1501,434 L1500,435 L1489,435 L1487,433 L1487,428 L1488,427 L1510,427 L1511,426 L1511,418 L1510,417 Z M1422,417 L1421,418 L1421,463 L1424,465 L1427,465 L1428,464 L1432,464 L1434,463 L1434,453 L1436,451 L1441,451 L1444,454 L1444,455 L1448,460 L1449,463 L1451,464 L1462,464 L1463,463 L1463,460 L1461,459 L1461,457 L1459,456 L1459,455 L1455,450 L1455,449 L1461,442 L1461,437 L1463,433 L1461,430 L1461,426 L1459,424 L1459,423 L1454,419 L1452,419 L1449,417 Z M1434,430 L1436,428 L1438,428 L1439,427 L1446,428 L1449,430 L1450,435 L1446,440 L1444,440 L1443,441 L1436,441 L1434,439 Z M1394,417 L1394,463 L1404,464 L1407,462 L1407,453 L1408,452 L1408,449 L1407,448 L1407,418 L1406,417 Z M1335,418 L1335,462 L1337,464 L1361,464 L1362,463 L1368,463 L1370,461 L1372,461 L1374,459 L1375,459 L1375,458 L1377,457 L1378,455 L1379,455 L1379,454 L1381,452 L1381,449 L1383,447 L1383,434 L1381,432 L1381,429 L1375,422 L1372,421 L1370,419 L1367,419 L1364,417 L1336,417 Z M1350,427 L1357,427 L1358,428 L1364,429 L1369,434 L1369,436 L1371,440 L1369,444 L1369,447 L1362,453 L1350,453 L1349,452 L1349,428 Z M1253,417 L1253,463 L1257,464 L1258,465 L1262,465 L1266,462 L1266,443 L1267,442 L1268,442 L1270,444 L1270,445 L1285,463 L1287,464 L1294,464 L1297,462 L1297,418 L1296,417 L1284,417 L1284,439 L1282,440 L1278,435 L1278,434 L1277,434 L1276,432 L1274,431 L1272,427 L1270,426 L1267,421 L1263,417 Z M1212,417 L1209,421 L1209,424 L1207,426 L1207,429 L1205,430 L1205,433 L1203,435 L1203,437 L1201,439 L1199,446 L1197,448 L1197,450 L1195,453 L1194,458 L1192,460 L1192,464 L1194,464 L1195,465 L1201,465 L1203,464 L1205,462 L1205,460 L1207,458 L1207,456 L1208,455 L1227,455 L1228,457 L1230,458 L1230,462 L1232,464 L1243,464 L1244,461 L1240,454 L1238,447 L1236,445 L1236,443 L1234,441 L1234,438 L1232,437 L1232,434 L1230,432 L1230,429 L1228,428 L1228,425 L1226,423 L1226,421 L1224,417 Z M1216,434 L1219,434 L1220,435 L1220,438 L1222,440 L1222,443 L1221,444 L1214,444 L1213,443 L1213,441 L1215,438 L1215,435 Z M1141,417 L1140,418 L1140,463 L1141,464 L1166,464 L1167,463 L1172,463 L1174,461 L1176,461 L1178,459 L1179,459 L1179,458 L1181,457 L1181,456 L1184,453 L1184,451 L1186,448 L1186,433 L1184,430 L1184,428 L1177,421 L1169,417 Z M1153,428 L1165,428 L1166,429 L1168,429 L1173,434 L1173,436 L1174,437 L1174,444 L1172,448 L1166,453 L1153,453 L1152,452 L1152,429 Z M1088,420 L1081,427 L1081,429 L1079,430 L1079,434 L1077,437 L1077,445 L1079,447 L1079,451 L1081,452 L1081,454 L1083,456 L1083,457 L1084,457 L1085,459 L1086,459 L1088,461 L1090,461 L1091,463 L1094,463 L1097,465 L1109,465 L1112,463 L1115,463 L1117,461 L1121,459 L1121,458 L1123,457 L1123,456 L1125,454 L1125,452 L1127,451 L1127,448 L1129,445 L1129,437 L1127,434 L1127,430 L1125,429 L1125,427 L1118,420 L1114,419 L1112,417 L1094,417 L1092,419 Z M1099,427 L1106,427 L1110,429 L1115,435 L1115,446 L1109,453 L1098,453 L1096,451 L1095,451 L1091,446 L1091,434 L1095,429 L1097,429 Z M1056,417 L1028,417 L1028,431 L1027,432 L1027,461 L1028,463 L1030,464 L1039,464 L1041,463 L1041,452 L1042,451 L1055,451 L1056,450 L1059,450 L1061,448 L1064,447 L1065,445 L1066,445 L1066,443 L1068,441 L1068,438 L1069,437 L1069,431 L1068,430 L1068,427 L1066,425 L1066,423 L1065,423 L1064,421 Z M1041,429 L1042,428 L1052,428 L1054,429 L1056,431 L1056,437 L1054,438 L1053,440 L1042,440 L1041,439 Z M979,417 L978,418 L978,462 L980,464 L1014,464 L1016,463 L1016,454 L1015,453 L992,453 L991,452 L991,447 L992,446 L1009,446 L1010,445 L1012,445 L1012,436 L1011,435 L992,435 L991,434 L991,428 L992,427 L1010,427 L1011,428 L1014,426 L1014,417 Z M921,417 L920,418 L920,462 L921,464 L945,464 L946,463 L952,463 L954,461 L956,461 L958,459 L959,459 L959,458 L961,457 L961,456 L963,455 L963,454 L965,452 L965,450 L967,446 L967,436 L965,432 L965,429 L963,427 L963,426 L955,419 L952,419 L949,417 Z M933,428 L945,428 L946,429 L950,430 L951,432 L953,433 L953,436 L955,438 L955,442 L953,445 L953,448 L951,449 L950,451 L948,451 L947,453 L933,453 L932,452 L932,429 Z M1396,400 L1396,401 L1394,402 L1394,410 L1397,413 L1404,413 L1404,412 L1406,411 L1406,410 L1408,408 L1408,405 L1406,403 L1406,402 L1402,399 Z M1763,132 L1760,132 L1757,130 L1736,130 L1733,132 L1729,132 L1727,134 L1725,134 L1723,136 L1719,138 L1718,140 L1716,140 L1715,139 L1715,132 L1664,132 L1663,133 L1663,390 L1664,392 L1715,392 L1715,339 L1717,338 L1724,344 L1733,348 L1741,348 L1742,349 L1758,348 L1769,343 L1775,337 L1778,331 L1778,328 L1780,326 L1780,318 L1782,315 L1782,163 L1780,160 L1780,153 L1778,150 L1778,147 L1776,145 L1776,143 L1772,139 L1772,138 L1771,138 L1769,136 L1768,136 L1767,134 L1765,134 Z M1720,173 L1725,173 L1728,175 L1728,177 L1730,179 L1730,298 L1728,302 L1726,304 L1719,304 L1715,299 L1715,179 L1717,177 L1717,175 Z M1828,132 L1826,134 L1823,134 L1821,136 L1819,136 L1818,138 L1816,138 L1816,139 L1814,140 L1813,142 L1812,142 L1806,152 L1806,154 L1805,155 L1805,160 L1803,163 L1803,315 L1805,318 L1805,323 L1807,326 L1808,331 L1811,334 L1814,339 L1815,339 L1818,342 L1829,347 L1832,347 L1833,348 L1843,348 L1844,349 L1849,349 L1850,350 L1871,350 L1872,349 L1879,349 L1880,348 L1889,348 L1890,347 L1893,347 L1894,346 L1896,346 L1903,343 L1905,341 L1906,341 L1911,335 L1912,335 L1912,334 L1914,332 L1914,330 L1916,328 L1916,325 L1918,322 L1919,312 L1920,311 L1920,171 L1919,170 L1919,165 L1918,164 L1918,157 L1917,156 L1916,151 L1914,149 L1914,147 L1912,145 L1912,144 L1911,144 L1910,142 L1909,142 L1908,140 L1906,139 L1906,138 L1905,138 L1903,136 L1901,136 L1900,134 L1897,134 L1895,132 L1889,132 L1886,130 L1867,130 L1866,129 L1855,129 L1854,130 L1838,130 L1834,132 Z M1858,172 L1863,172 L1868,176 L1868,303 L1866,304 L1865,306 L1858,306 L1853,300 L1853,177 L1855,175 L1855,174 Z M1553,132 L1551,134 L1548,134 L1543,138 L1541,138 L1541,139 L1539,140 L1538,142 L1537,142 L1532,150 L1532,152 L1530,156 L1530,161 L1528,164 L1528,314 L1530,318 L1530,323 L1536,335 L1543,342 L1554,347 L1558,347 L1559,348 L1569,348 L1570,349 L1575,349 L1576,350 L1595,350 L1596,349 L1602,349 L1603,348 L1613,348 L1614,347 L1617,347 L1623,344 L1625,344 L1630,340 L1631,340 L1631,339 L1633,338 L1633,337 L1637,332 L1637,330 L1639,328 L1639,325 L1641,323 L1641,317 L1643,313 L1643,267 L1642,266 L1595,266 L1593,268 L1593,301 L1588,306 L1583,306 L1580,303 L1578,299 L1578,252 L1579,251 L1642,251 L1643,250 L1643,164 L1641,160 L1641,155 L1639,153 L1639,150 L1637,148 L1637,146 L1636,146 L1635,144 L1631,140 L1630,140 L1629,138 L1627,137 L1627,136 L1625,136 L1623,134 L1620,134 L1618,132 L1613,132 L1609,130 L1592,130 L1591,129 L1562,130 L1559,132 Z M1584,172 L1588,172 L1593,176 L1593,211 L1592,212 L1579,212 L1578,211 L1578,178 L1579,176 Z M1211,132 L1209,134 L1206,134 L1204,136 L1197,140 L1197,141 L1194,144 L1194,145 L1190,150 L1190,154 L1188,156 L1188,164 L1186,167 L1186,314 L1188,316 L1188,323 L1190,325 L1190,328 L1192,330 L1193,333 L1198,339 L1199,339 L1204,343 L1213,347 L1216,347 L1217,348 L1228,348 L1229,349 L1234,349 L1235,350 L1253,350 L1254,349 L1260,349 L1261,348 L1271,348 L1272,347 L1275,347 L1276,346 L1281,345 L1291,339 L1291,338 L1295,334 L1295,332 L1297,330 L1297,327 L1299,325 L1299,320 L1301,317 L1301,303 L1302,302 L1302,297 L1301,296 L1301,267 L1300,266 L1253,266 L1253,268 L1252,269 L1252,273 L1253,274 L1253,293 L1252,294 L1251,303 L1249,304 L1248,306 L1241,306 L1236,300 L1236,252 L1237,251 L1301,251 L1302,250 L1302,222 L1303,221 L1303,174 L1302,173 L1302,169 L1301,168 L1301,160 L1299,158 L1299,153 L1297,150 L1297,148 L1295,147 L1295,145 L1293,143 L1293,142 L1292,142 L1291,140 L1289,139 L1289,138 L1288,138 L1286,136 L1284,136 L1282,134 L1279,134 L1277,132 L1271,132 L1268,130 L1252,130 L1251,129 L1220,130 L1217,132 Z M1244,171 L1246,171 L1248,173 L1249,173 L1251,175 L1251,177 L1253,179 L1253,211 L1252,212 L1237,212 L1236,211 L1236,177 L1239,173 L1243,172 Z M786,134 L784,136 L782,136 L780,138 L779,138 L779,139 L773,144 L768,153 L768,158 L766,160 L766,172 L764,176 L765,178 L765,210 L766,211 L815,211 L816,210 L816,178 L818,174 L821,172 L827,172 L831,176 L831,207 L822,214 L820,214 L818,216 L816,216 L814,218 L812,218 L811,220 L808,220 L807,222 L804,222 L802,224 L800,224 L796,226 L794,228 L792,228 L788,231 L783,233 L783,234 L778,237 L771,245 L768,251 L768,253 L766,255 L766,261 L764,264 L764,313 L766,317 L766,324 L768,326 L768,330 L771,336 L773,338 L773,339 L775,340 L775,341 L776,341 L782,346 L786,347 L787,348 L795,348 L796,349 L812,348 L827,341 L827,340 L829,339 L830,337 L832,338 L832,343 L833,344 L833,346 L835,346 L836,347 L880,347 L883,345 L883,168 L882,167 L882,164 L881,163 L881,156 L879,154 L879,151 L877,149 L877,147 L875,145 L875,144 L874,144 L873,142 L872,142 L871,140 L869,139 L869,138 L868,138 L866,136 L864,136 L863,134 L860,134 L858,132 L852,132 L849,130 L830,130 L829,129 L819,129 L818,130 L800,130 L797,132 L791,132 L789,134 Z M830,255 L831,256 L831,301 L826,306 L821,306 L816,300 L816,267 L818,263 L824,257 L825,257 L827,255 Z M653,132 L651,134 L648,134 L646,136 L644,136 L643,138 L641,138 L641,139 L636,143 L634,147 L632,148 L632,151 L630,153 L630,157 L628,160 L628,168 L626,172 L626,305 L627,306 L627,310 L628,311 L628,319 L630,322 L630,326 L632,328 L632,330 L634,332 L636,336 L640,340 L643,341 L647,344 L649,344 L652,346 L658,347 L659,348 L671,348 L672,349 L677,349 L678,350 L695,350 L696,349 L701,349 L702,348 L713,348 L714,347 L717,347 L718,346 L723,345 L727,343 L729,341 L731,341 L735,337 L735,336 L737,335 L741,327 L741,324 L743,322 L743,316 L745,314 L745,249 L695,249 L695,297 L693,300 L693,303 L691,304 L690,306 L683,306 L682,304 L680,303 L680,300 L678,297 L678,207 L679,206 L679,179 L680,178 L680,175 L685,171 L687,171 L691,173 L693,175 L693,178 L694,179 L694,219 L695,220 L745,220 L745,165 L743,162 L743,155 L741,153 L741,150 L739,148 L739,146 L737,144 L737,143 L735,142 L734,140 L733,140 L725,134 L722,134 L720,132 L714,132 L711,130 L695,130 L694,129 L662,130 L659,132 Z M99,223 L99,446 L102,448 L145,448 L147,447 L147,250 L153,245 L155,245 L156,243 L158,243 L177,230 L179,230 L180,228 L181,228 L183,226 L185,226 L186,224 L188,224 L189,222 L191,222 L192,220 L194,220 L210,209 L212,209 L213,207 L215,207 L223,201 L225,201 L228,198 L231,197 L240,190 L242,190 L244,188 L254,182 L255,180 L257,180 L259,178 L264,176 L264,175 L267,173 L270,173 L272,174 L273,176 L278,178 L301,194 L304,195 L307,198 L310,199 L312,201 L314,201 L315,203 L316,203 L318,205 L320,205 L321,207 L322,207 L327,211 L329,211 L332,214 L337,216 L345,222 L347,222 L348,224 L350,224 L351,226 L352,226 L354,228 L356,228 L357,230 L358,230 L360,232 L362,232 L363,234 L373,239 L381,245 L383,245 L384,247 L386,248 L386,447 L388,447 L389,448 L431,448 L434,446 L434,222 L432,220 L430,220 L428,218 L427,218 L426,216 L424,216 L408,205 L406,205 L405,203 L404,203 L402,201 L400,201 L399,199 L398,199 L387,191 L385,191 L382,188 L377,186 L376,184 L374,184 L373,182 L371,182 L370,180 L368,180 L367,178 L365,178 L351,168 L348,167 L343,163 L341,163 L340,161 L338,161 L336,159 L335,159 L334,157 L332,157 L307,140 L305,140 L304,138 L302,138 L301,136 L299,136 L298,134 L297,134 L295,132 L293,132 L292,130 L290,130 L279,122 L276,121 L274,119 L272,119 L271,117 L265,117 L265,118 L264,119 L262,119 L261,121 L256,123 L253,126 L248,128 L237,136 L235,136 L234,138 L233,138 L231,140 L229,140 L228,142 L226,142 L204,157 L202,157 L201,159 L199,159 L198,161 L196,161 L180,172 L178,172 L177,174 L175,174 L173,176 L172,176 L171,178 L169,178 L167,180 L166,180 L165,182 L163,182 L158,186 L153,188 L150,191 L148,191 L146,193 L145,193 L144,195 L142,195 L128,205 L126,205 L125,207 L115,212 L113,214 L109,216 L108,218 L106,218 Z M1504,81 L1455,81 L1454,82 L1454,139 L1452,140 L1448,136 L1447,136 L1446,134 L1444,134 L1442,132 L1439,132 L1436,130 L1412,130 L1410,132 L1407,132 L1405,134 L1403,134 L1401,136 L1400,136 L1400,137 L1398,138 L1397,140 L1396,140 L1396,141 L1392,146 L1392,148 L1390,150 L1390,153 L1388,156 L1388,166 L1387,167 L1387,310 L1388,311 L1388,321 L1390,324 L1390,328 L1392,330 L1392,333 L1394,334 L1394,336 L1396,338 L1396,339 L1398,340 L1398,341 L1406,346 L1408,346 L1412,348 L1419,348 L1420,349 L1436,348 L1437,347 L1440,347 L1446,344 L1449,341 L1450,341 L1450,340 L1452,339 L1453,337 L1455,338 L1455,346 L1457,346 L1458,347 L1502,347 L1503,346 L1505,346 L1505,82 Z M1443,173 L1449,173 L1453,177 L1453,301 L1451,302 L1450,304 L1443,304 L1441,303 L1438,297 L1438,180 L1440,178 L1440,176 Z M1164,81 L1115,81 L1113,83 L1113,139 L1111,140 L1110,138 L1108,137 L1108,136 L1107,136 L1102,132 L1099,132 L1096,130 L1073,130 L1071,132 L1067,132 L1065,134 L1063,134 L1061,136 L1060,136 L1060,137 L1058,138 L1058,139 L1056,140 L1055,142 L1054,142 L1054,143 L1052,145 L1052,147 L1050,149 L1050,153 L1048,157 L1048,163 L1047,164 L1047,176 L1046,177 L1046,180 L1047,181 L1047,192 L1046,193 L1046,299 L1047,300 L1047,314 L1048,315 L1048,322 L1050,326 L1050,329 L1052,331 L1052,333 L1061,343 L1064,344 L1066,346 L1068,346 L1072,348 L1080,348 L1081,349 L1096,348 L1097,347 L1099,347 L1106,344 L1109,341 L1110,341 L1113,337 L1115,338 L1115,345 L1119,347 L1163,347 L1165,346 L1165,82 Z M1103,173 L1108,173 L1110,174 L1113,179 L1113,300 L1110,304 L1103,304 L1098,298 L1098,179 Z M1024,81 L976,81 L974,83 L974,139 L973,140 L971,140 L970,138 L968,137 L968,136 L966,136 L961,132 L957,132 L955,130 L931,130 L929,132 L925,132 L923,134 L919,136 L919,137 L917,138 L914,142 L913,142 L913,144 L911,146 L911,149 L909,150 L909,156 L907,159 L907,317 L909,320 L909,326 L911,328 L911,331 L913,333 L913,335 L915,337 L915,338 L922,344 L928,347 L930,347 L931,348 L938,348 L939,349 L955,348 L956,347 L959,347 L967,343 L971,339 L972,339 L973,337 L975,338 L975,345 L977,347 L1022,347 L1026,345 L1026,83 Z M963,173 L969,173 L972,176 L972,177 L974,178 L974,300 L972,301 L972,302 L970,304 L962,304 L959,301 L959,299 L957,296 L957,180 L959,178 L959,176 Z M514,179 L512,177 L512,176 L511,176 L510,174 L508,173 L508,172 L498,167 L495,164 L492,163 L490,161 L488,161 L487,159 L486,159 L484,157 L482,157 L481,155 L479,155 L477,153 L476,153 L475,151 L473,151 L470,148 L462,144 L454,138 L452,138 L451,136 L450,136 L448,134 L446,134 L445,132 L444,132 L439,128 L436,127 L428,121 L426,121 L424,119 L423,119 L422,117 L420,117 L406,107 L404,107 L400,103 L398,103 L395,100 L393,100 L385,94 L383,94 L382,92 L381,92 L367,82 L364,81 L362,79 L360,79 L359,77 L357,77 L356,75 L354,75 L353,73 L351,73 L350,71 L349,71 L347,69 L345,69 L344,67 L343,67 L341,65 L339,65 L338,63 L333,61 L326,56 L324,56 L323,54 L322,54 L320,52 L318,52 L317,50 L316,50 L314,48 L312,48 L311,46 L309,46 L306,43 L298,39 L290,33 L288,33 L287,31 L286,31 L284,29 L282,29 L281,27 L280,27 L278,25 L276,25 L275,23 L269,20 L265,21 L263,23 L256,27 L255,29 L252,29 L251,31 L249,31 L249,32 L245,35 L243,35 L224,48 L222,48 L221,50 L219,50 L218,52 L216,52 L215,54 L213,54 L211,56 L210,56 L209,58 L207,58 L191,69 L189,69 L188,71 L186,71 L185,73 L183,73 L181,75 L180,75 L179,77 L177,77 L167,84 L164,85 L161,88 L159,88 L158,90 L156,90 L151,94 L149,94 L148,96 L147,96 L145,98 L143,98 L142,100 L140,100 L138,102 L135,103 L131,107 L129,107 L124,111 L122,111 L121,113 L119,113 L118,115 L116,115 L116,116 L115,117 L113,117 L112,119 L110,119 L108,121 L105,122 L94,130 L92,130 L91,132 L89,132 L87,134 L86,134 L85,136 L83,136 L75,142 L67,146 L64,149 L62,149 L48,159 L46,159 L46,160 L42,163 L40,163 L34,168 L32,168 L30,170 L23,174 L23,175 L21,176 L21,177 L19,179 L19,446 L22,448 L68,448 L71,446 L71,206 L74,203 L75,203 L76,201 L78,201 L87,194 L92,192 L103,184 L105,184 L105,183 L109,180 L111,180 L112,178 L122,173 L136,163 L138,163 L139,161 L141,161 L142,159 L147,157 L148,155 L150,155 L163,146 L165,146 L167,144 L168,144 L169,142 L171,142 L173,140 L174,140 L175,138 L177,138 L182,134 L187,132 L190,129 L195,127 L196,125 L198,125 L212,115 L214,115 L215,113 L217,113 L233,102 L235,102 L236,100 L238,100 L240,98 L241,98 L242,96 L244,96 L249,92 L254,90 L263,83 L265,83 L266,81 L270,81 L272,83 L274,83 L275,85 L280,87 L281,89 L284,90 L289,94 L291,94 L292,96 L294,96 L296,98 L297,98 L298,100 L300,100 L314,110 L317,111 L322,115 L324,115 L325,117 L326,117 L331,121 L333,121 L334,123 L339,125 L347,131 L350,132 L373,148 L375,148 L376,150 L381,152 L384,155 L386,155 L412,173 L415,174 L418,177 L421,178 L423,180 L425,180 L426,182 L427,182 L429,184 L431,184 L432,186 L434,186 L435,188 L436,188 L438,190 L440,190 L443,193 L446,194 L449,197 L452,198 L455,201 L457,201 L458,203 L460,203 L462,206 L462,446 L463,447 L468,447 L469,448 L511,448 L514,446 Z"/>
    <path fill="#F0441C" d="M1663,432 L1663,447 L1667,450 L1871,450 L1872,449 L1911,449 L1913,450 L1914,449 L1918,449 L1919,448 L1919,431 L1918,430 L1664,430 Z M628,431 L628,448 L631,450 L800,450 L801,449 L804,449 L805,450 L807,449 L811,449 L812,450 L871,450 L875,448 L875,431 L874,430 L629,430 Z M362,254 L358,254 L350,258 L347,258 L344,260 L341,260 L338,262 L334,262 L332,264 L329,264 L326,266 L323,266 L320,268 L317,268 L316,269 L314,269 L313,270 L311,270 L310,271 L308,271 L304,273 L301,273 L299,275 L296,275 L293,277 L290,277 L287,279 L284,279 L282,281 L278,281 L276,283 L272,283 L270,285 L267,285 L264,287 L261,287 L259,289 L255,289 L250,293 L250,446 L253,448 L361,448 L363,447 L363,255 Z"/>
  </g>
</svg>
