<svg xmlns="http://www.w3.org/2000/svg" width="600" height="600" viewBox="0 0 600 600" role="img" aria-labelledby="title desc">
  <title id="title">Cadde Depo logo</title>
  <desc id="desc">Cadde Depo transparent SVG logo asset generated from the approved brand mark.</desc>
  <g fill-rule="evenodd" clip-rule="evenodd">
    <path fill="#171717" d="M133,290 L133,513 L136,515 L179,515 L181,514 L181,317 L187,312 L189,312 L190,310 L192,310 L194,308 L200,305 L211,297 L213,297 L214,295 L215,295 L217,293 L219,293 L220,291 L222,291 L223,289 L225,289 L226,287 L228,287 L230,285 L236,282 L244,276 L246,276 L247,274 L249,274 L257,268 L259,268 L262,265 L265,264 L268,261 L271,260 L274,257 L276,257 L278,255 L279,255 L281,253 L282,253 L284,251 L288,249 L289,247 L291,247 L293,245 L298,243 L298,242 L301,240 L304,240 L306,241 L307,243 L312,245 L314,247 L315,247 L317,249 L318,249 L320,251 L321,251 L323,253 L324,253 L335,261 L338,262 L341,265 L344,266 L346,268 L348,268 L349,270 L350,270 L352,272 L354,272 L355,274 L356,274 L361,278 L363,278 L366,281 L371,283 L379,289 L381,289 L382,291 L384,291 L385,293 L386,293 L388,295 L390,295 L391,297 L392,297 L394,299 L396,299 L397,301 L407,306 L415,312 L417,312 L418,314 L420,315 L420,514 L422,514 L423,515 L465,515 L468,513 L468,289 L466,287 L464,287 L462,285 L461,285 L460,283 L458,283 L456,281 L455,281 L450,277 L447,276 L442,272 L440,272 L439,270 L438,270 L436,268 L434,268 L433,266 L432,266 L421,258 L419,258 L416,255 L411,253 L410,251 L408,251 L407,249 L405,249 L404,247 L402,247 L401,245 L399,245 L397,243 L396,243 L385,235 L382,234 L377,230 L375,230 L374,228 L372,228 L370,226 L369,226 L368,224 L366,224 L364,222 L363,222 L355,216 L352,215 L341,207 L339,207 L338,205 L336,205 L335,203 L333,203 L332,201 L331,201 L329,199 L327,199 L326,197 L324,197 L313,189 L310,188 L308,186 L306,186 L305,184 L299,184 L299,185 L298,186 L296,186 L295,188 L290,190 L287,193 L282,195 L271,203 L269,203 L268,205 L267,205 L265,207 L263,207 L262,209 L260,209 L258,211 L252,214 L250,216 L249,216 L238,224 L236,224 L235,226 L233,226 L232,228 L230,228 L228,230 L227,230 L222,234 L219,235 L214,239 L212,239 L211,241 L209,241 L207,243 L206,243 L205,245 L203,245 L201,247 L200,247 L199,249 L197,249 L192,253 L187,255 L184,258 L182,258 L180,260 L179,260 L178,262 L176,262 L174,264 L173,264 L162,272 L160,272 L159,274 L149,279 L147,281 L143,283 L142,285 L140,285 L138,287 L137,287 Z M548,246 L546,244 L546,243 L545,243 L544,241 L542,240 L542,239 L532,234 L529,231 L526,230 L524,228 L522,228 L521,226 L520,226 L518,224 L516,224 L515,222 L513,222 L511,220 L510,220 L509,218 L507,218 L504,215 L496,211 L488,205 L486,205 L485,203 L484,203 L482,201 L480,201 L479,199 L478,199 L473,195 L470,194 L462,188 L460,188 L458,186 L457,186 L456,184 L454,184 L452,182 L451,182 L440,174 L438,174 L434,170 L432,170 L429,167 L427,167 L419,161 L417,161 L416,159 L415,159 L413,157 L412,157 L401,149 L398,148 L396,146 L394,146 L393,144 L391,144 L390,142 L388,142 L387,140 L385,140 L384,138 L383,138 L381,136 L379,136 L378,134 L377,134 L375,132 L373,132 L372,130 L367,128 L365,126 L362,125 L360,123 L358,123 L357,121 L356,121 L354,119 L352,119 L351,117 L350,117 L348,115 L346,115 L345,113 L343,113 L340,110 L332,106 L324,100 L322,100 L321,98 L320,98 L318,96 L316,96 L315,94 L314,94 L312,92 L310,92 L309,90 L303,87 L301,87 L299,88 L297,90 L296,90 L294,92 L290,94 L289,96 L286,96 L285,98 L283,98 L283,99 L279,102 L277,102 L275,104 L269,107 L258,115 L256,115 L255,117 L253,117 L252,119 L250,119 L249,121 L247,121 L245,123 L244,123 L243,125 L241,125 L239,127 L236,128 L225,136 L223,136 L222,138 L220,138 L219,140 L217,140 L215,142 L214,142 L213,144 L211,144 L209,146 L206,147 L201,151 L198,152 L195,155 L193,155 L192,157 L190,157 L185,161 L183,161 L182,163 L181,163 L179,165 L177,165 L176,167 L174,167 L172,169 L169,170 L165,174 L163,174 L158,178 L156,178 L155,180 L153,180 L152,182 L150,182 L150,183 L149,184 L147,184 L146,186 L144,186 L142,188 L139,189 L128,197 L126,197 L125,199 L123,199 L121,201 L120,201 L119,203 L117,203 L109,209 L101,213 L98,216 L96,216 L94,218 L93,218 L82,226 L80,226 L80,227 L76,230 L74,230 L68,235 L66,235 L64,237 L63,237 L61,239 L57,241 L57,242 L55,243 L55,244 L53,246 L53,513 L56,515 L102,515 L105,513 L105,273 L108,270 L109,270 L110,268 L112,268 L115,265 L118,264 L121,261 L126,259 L137,251 L139,251 L139,250 L143,247 L145,247 L146,245 L156,240 L158,238 L159,238 L170,230 L172,230 L173,228 L175,228 L176,226 L181,224 L182,222 L184,222 L186,220 L189,219 L197,213 L199,213 L201,211 L202,211 L203,209 L205,209 L207,207 L208,207 L209,205 L211,205 L216,201 L221,199 L224,196 L229,194 L230,192 L232,192 L234,190 L235,190 L246,182 L248,182 L249,180 L251,180 L253,178 L256,177 L267,169 L269,169 L270,167 L272,167 L274,165 L275,165 L276,163 L278,163 L283,159 L288,157 L291,154 L294,153 L297,150 L299,150 L300,148 L304,148 L306,150 L308,150 L309,152 L314,154 L315,156 L318,157 L323,161 L325,161 L326,163 L328,163 L330,165 L331,165 L332,167 L334,167 L336,169 L337,169 L348,177 L351,178 L356,182 L358,182 L359,184 L360,184 L365,188 L367,188 L368,190 L373,192 L381,198 L384,199 L386,201 L387,201 L389,203 L390,203 L392,205 L393,205 L395,207 L396,207 L407,215 L409,215 L410,217 L415,219 L418,222 L420,222 L422,224 L423,224 L425,226 L426,226 L428,228 L429,228 L431,230 L432,230 L434,232 L435,232 L446,240 L449,241 L452,244 L455,245 L457,247 L459,247 L460,249 L461,249 L463,251 L465,251 L466,253 L468,253 L469,255 L470,255 L472,257 L474,257 L477,260 L480,261 L483,264 L486,265 L489,268 L491,268 L492,270 L494,270 L496,273 L496,513 L497,514 L502,514 L503,515 L545,515 L548,513 Z"/>
    <path fill="#F0441C" d="M396,321 L392,321 L384,325 L381,325 L378,327 L375,327 L372,329 L368,329 L366,331 L363,331 L360,333 L357,333 L354,335 L351,335 L350,336 L348,336 L347,337 L345,337 L344,338 L342,338 L338,340 L335,340 L333,342 L330,342 L327,344 L324,344 L321,346 L318,346 L316,348 L312,348 L310,350 L306,350 L304,352 L301,352 L298,354 L295,354 L293,356 L289,356 L284,360 L284,513 L287,515 L395,515 L397,514 L397,322 Z"/>
  </g>
</svg>
